
<svg xmlns="http://www.w3.org/2000/svg"  width="1090" height="1090" style="shape-rendering:geometricPrecision; text-rendering:geometricPrecision; image-rendering:optimizeQuality; fill-rule:evenodd; clip-rule:evenodd" xmlns:xlink="http://www.w3.org/1999/xlink">
<g><path style="opacity:0.853" fill="#0072ff" d="M 797.5,413.5 C 799.54,408.083 801.873,403.416 804.5,399.5C 807.08,396.502 810.08,394.002 813.5,392C 821.833,391.333 830.167,391.333 838.5,392C 843.806,395.728 848.306,400.228 852,405.5C 853.384,411.109 853.717,416.775 853,422.5C 852.76,425.362 851.593,427.695 849.5,429.5C 852.5,432.667 855.5,435.833 858.5,439C 866.454,435.627 874.787,434.961 883.5,437C 892.6,444.097 901.1,451.931 909,460.5C 916.162,454.337 922.996,447.837 929.5,441C 939.12,434.665 948.953,434.165 959,439.5C 962.799,436.703 966.299,433.536 969.5,430C 962.542,415.007 965.876,402.507 979.5,392.5C 1001.97,385.89 1015.97,393.723 1021.5,416C 1019.82,427.512 1013.82,436.012 1003.5,441.5C 1000.65,442.177 998.147,443.51 996,445.5C 990.015,444.947 984.349,442.947 979,439.5C 975.918,442.738 973.085,446.071 970.5,449.5C 974.554,458.876 974.387,468.209 970,477.5C 969.667,477.167 969.333,476.833 969,476.5C 957.946,488.887 946.279,500.554 934,511.5C 923.493,526.896 909.993,530.062 893.5,521C 879.36,506.86 865.194,492.694 851,478.5C 847.868,474.071 845.701,469.238 844.5,464C 845.553,461.242 846.386,458.075 847,454.5C 847.972,452.695 849.139,451.028 850.5,449.5C 846.562,446.381 842.895,443.048 839.5,439.5C 835.106,442.101 830.439,444.101 825.5,445.5C 816.433,443.015 808.433,437.682 801.5,429.5C 799.986,425.115 798.32,420.782 796.5,416.5C 797.127,415.583 797.461,414.583 797.5,413.5 Z"/></g>
<g><path style="opacity:0.004" fill="#0072ff" d="M 797.5,413.5 C 796.833,412.167 796.833,412.167 797.5,413.5 Z"/></g>
<g><path style="opacity:0.847" fill="#0072ff" d="M 1030.5,428.5 C 1044.37,428.768 1054.37,435.101 1060.5,447.5C 1062.65,456.257 1061.31,464.257 1056.5,471.5C 1050.22,478.469 1042.56,482.469 1033.5,483.5C 1030.98,483.331 1028.48,482.998 1026,482.5C 1024.16,481.465 1022.33,480.465 1020.5,479.5C 1016.71,482.79 1013.04,486.29 1009.5,490C 1011.04,491.579 1012.21,493.413 1013,495.5C 1015.24,504.997 1013.24,513.331 1007,520.5C 1000.35,525.983 994.183,531.983 988.5,538.5C 994.512,544.013 1000.35,549.679 1006,555.5C 1013.14,563.108 1015.48,572.108 1013,582.5C 1011.95,584.09 1010.79,585.59 1009.5,587C 1013.02,590.682 1016.68,594.182 1020.5,597.5C 1024.64,595.234 1028.97,593.567 1033.5,592.5C 1045.84,594.662 1055.01,601.329 1061,612.5C 1063.51,628.482 1057.34,639.815 1042.5,646.5C 1026.77,650.321 1015.6,644.988 1009,630.5C 1008.67,630.833 1008.33,631.167 1008,631.5C 1007.58,630.328 1006.91,629.328 1006,628.5C 1005.64,622.858 1005.48,617.358 1005.5,612C 1007.48,611.519 1008.81,610.353 1009.5,608.5C 1006.36,604.924 1003.19,601.258 1000,597.5C 995.366,598.984 990.866,600.65 986.5,602.5C 980.982,600.859 975.649,598.693 970.5,596C 954.584,581.235 939.584,566.402 925.5,551.5C 922.558,544.862 921.725,537.862 923,530.5C 924.703,526.888 926.869,523.555 929.5,520.5C 943.751,506.253 958.418,492.253 973.5,478.5C 979.866,475.638 986.533,474.805 993.5,476C 995.78,476.703 997.78,477.869 999.5,479.5C 1003.36,476.47 1006.7,472.97 1009.5,469C 1008.51,467.077 1007.34,465.244 1006,463.5C 1005.17,458.136 1005.34,452.802 1006.5,447.5C 1009.57,443.244 1012.91,439.078 1016.5,435C 1021.02,432.335 1025.69,430.169 1030.5,428.5 Z"/></g>
<g><path style="opacity:0.85" fill="#0072ff" d="M 781.5,430.5 C 793.429,430.899 802.595,436.232 809,446.5C 811.897,453.357 812.231,460.357 810,467.5C 809.5,469.333 808.333,470.5 806.5,471C 810.053,474.097 813.386,477.43 816.5,481C 818.311,480.581 819.978,479.581 821.5,478C 828.031,476.528 834.364,476.694 840.5,478.5C 853.434,488.956 865.267,499.956 876,511.5C 882.353,516.353 887.853,522.02 892.5,528.5C 896.114,539.096 894.614,548.762 888,557.5C 872.681,572.842 857.514,587.342 842.5,601C 833.892,604.823 825.725,604.323 818,599.5C 814.201,602.625 810.368,605.792 806.5,609C 809.688,610.934 811.188,613.768 811,617.5C 811.661,622.558 811.328,627.558 810,632.5C 798.45,650.244 783.616,653.744 765.5,643C 763.306,640.305 761.306,637.472 759.5,634.5C 758.675,633.614 757.675,633.281 756.5,633.5C 756.334,625.826 756.5,618.159 757,610.5C 757.333,610.833 757.667,611.167 758,611.5C 766.097,597.853 777.597,592.686 792.5,596C 794.09,597.046 795.59,598.213 797,599.5C 800.446,596.054 803.946,592.554 807.5,589C 803.065,582.008 802.398,574.675 805.5,567C 805.355,566.228 805.022,565.561 804.5,565C 812.163,556.337 820.163,548.003 828.5,540C 820.113,532.279 812.113,524.279 804.5,516C 805.849,514.365 805.682,512.865 804,511.5C 802.505,504.052 803.672,497.219 807.5,491C 803.951,487.943 800.284,485.109 796.5,482.5C 780.443,488.647 767.943,484.314 759,469.5C 758.333,468.167 757.667,468.167 757,469.5C 756.333,461.167 756.333,452.833 757,444.5C 757.308,445.308 757.808,445.975 758.5,446.5C 763.531,437.101 771.197,431.767 781.5,430.5 Z"/></g>
<g><path style="opacity:0.004" fill="#fefffe" d="M 1123.5,470.5 C 1124.5,470.5 1125.5,470.5 1126.5,470.5C 1126.5,472.833 1126.5,475.167 1126.5,477.5C 1125.07,477.421 1123.74,477.754 1122.5,478.5C 1122.17,478 1121.83,477.5 1121.5,477C 1123,475.079 1123.67,472.912 1123.5,470.5 Z"/></g>
<g><path style="opacity:0.004" fill="#0072ff" d="M 801.5,502.5 C 802.833,503.167 802.833,503.167 801.5,502.5 Z"/></g>
<g><path style="opacity:0.005" fill="#fefffe" d="M 1143.5,510.5 C 1145.95,509.527 1148.61,509.194 1151.5,509.5C 1151.71,512.127 1150.54,513.793 1148,514.5C 1146.3,513.296 1144.8,511.962 1143.5,510.5 Z"/></g>
<g><path style="opacity:0.004" fill="#fefffe" d="M 1209.5,518.5 C 1211.82,518.229 1213.82,518.896 1215.5,520.5C 1216.19,519.975 1216.69,519.308 1217,518.5C 1216.92,523.635 1217.75,528.469 1219.5,533C 1217.04,533.772 1215.38,532.939 1214.5,530.5C 1215.55,528.944 1216.21,527.277 1216.5,525.5C 1214.07,525.116 1211.74,524.449 1209.5,523.5C 1209.5,521.833 1209.5,520.167 1209.5,518.5 Z"/></g>
<g><path style="opacity:0.853" fill="#0072ff" d="M 969.5,627.5 C 968.427,628.251 968.26,629.251 969,630.5C 971.682,633.35 974.516,636.016 977.5,638.5C 997.184,631.006 1011.02,637.006 1019,656.5C 1020.2,669.371 1015.37,679.371 1004.5,686.5C 995.518,687.665 986.518,687.832 977.5,687C 977.833,686.667 978.167,686.333 978.5,686C 966.441,678.332 962.107,667.499 965.5,653.5C 966.228,651.807 967.228,650.307 968.5,649C 964.803,645.393 960.969,641.893 957,638.5C 949.888,644.194 942.055,645.028 933.5,641C 924.047,634.214 915.547,626.381 908,617.5C 904.371,620.753 901.204,624.42 898.5,628.5C 894.726,630.771 891.393,633.604 888.5,637C 885.146,639.032 881.813,641.032 878.5,643C 873.798,643.828 869.131,643.662 864.5,642.5C 861.813,641.902 859.646,640.569 858,638.5C 854.651,641.682 851.484,645.015 848.5,648.5C 853.991,657.949 853.824,667.282 848,676.5C 844.651,680.016 841.151,683.349 837.5,686.5C 828.833,687.833 820.167,687.833 811.5,686.5C 799.613,679.397 794.78,669.063 797,655.5C 805.254,637.033 818.754,631.366 837.5,638.5C 841.499,635.816 845.166,632.65 848.5,629C 845.161,625.441 843.495,621.108 843.5,616C 843.874,611.553 845.041,607.387 847,603.5C 861.526,587.975 876.359,572.808 891.5,558C 907.503,549.184 921.003,552.018 932,566.5C 943.113,577.291 954.28,587.958 965.5,598.5C 973.107,607.297 974.441,616.964 969.5,627.5 Z"/></g>
<g><path style="opacity:0.005" fill="#fefffe" d="M 1173.5,588.5 C 1175.83,588.5 1178.17,588.5 1180.5,588.5C 1180.33,592.846 1180.5,597.179 1181,601.5C 1182.16,603.838 1184,605.172 1186.5,605.5C 1186.5,606.5 1186.5,607.5 1186.5,608.5C 1184.83,608.5 1183.17,608.5 1181.5,608.5C 1181.5,607.5 1181.5,606.5 1181.5,605.5C 1179.23,605.859 1177.4,605.192 1176,603.5C 1174.2,598.66 1173.37,593.66 1173.5,588.5 Z"/></g>
<g><path style="opacity:0.006" fill="#fefffe" d="M 1129.5,608.5 C 1136.39,610.636 1141.39,614.47 1144.5,620C 1147.01,621.509 1149.51,623.009 1152,624.5C 1152.67,625.833 1152.67,627.167 1152,628.5C 1151.52,627.552 1151.35,626.552 1151.5,625.5C 1145.38,625.772 1140.71,623.439 1137.5,618.5C 1135.33,616.914 1133,615.58 1130.5,614.5C 1129.53,612.604 1129.2,610.604 1129.5,608.5 Z"/></g>
<g><path style="opacity:0.004" fill="#0072ff" d="M 969.5,627.5 C 970.833,628.167 970.833,628.167 969.5,627.5 Z"/></g>
</svg>
